<svg xmlns="http://www.w3.org/2000/svg" viewBox="0 0 735.97 143.02"><defs><style>.cls-1{fill:#d4ede4;}</style></defs><g id="Layer_2" data-name="Layer 2"><g id="Layer_1-2" data-name="Layer 1"><path class="cls-1" d="M227.16,36s-2.72-.07-2.72-.07H200.37s-2.74,0-2.72.07C177.82,36.87,168,47.25,168,68.93v71.91h18.28V68.73c0-11.92,4.56-16.09,15.69-16.09h20.89c11.13,0,15.69,4.17,15.69,16.09v72.11h18.28V68.93C256.82,47.25,247,36.87,227.16,36Z"/><circle class="cls-1" cx="221.76" cy="85.89" r="10.95"/><path class="cls-1" d="M53.56,88.59c0-31.38,22.24-54.82,52.64-54.82,26.61,0,50.45,18.07,49.85,56.81H70.64c1,20.66,15.29,36,37,36,15.29,0,27.81-7.55,35.55-20.26l12.72,9.34c-9.14,14.3-25,27-48.47,27C75.21,142.62,53.56,119.38,53.56,88.59Zm84.62-11.72C134.8,58.2,121.69,49.26,106,49.26,88.32,49.26,75.41,61,71.63,76.87Z"/><path class="cls-1" d="M59.22,36H32.38C10.73,36,0,46.28,0,68.93v71.91H18.28V68.73c0-11.92,4.56-16.09,15.69-16.09H48.45A75.81,75.81,0,0,1,59.22,36Z"/><path class="cls-1" d="M53.56,88.59c0-31.38,22.24-54.82,52.64-54.82,26.61,0,50.45,18.07,49.85,56.81H70.64c1,20.66,15.29,36,37,36,15.29,0,27.81-7.55,35.55-20.26l12.72,9.34c-9.14,14.3-25,27-48.47,27C75.21,142.62,53.56,119.38,53.56,88.59Zm84.62-11.72C134.8,58.2,121.69,49.26,106,49.26,88.32,49.26,75.41,61,71.63,76.87Z"/><path class="cls-1" d="M267.74,88.39c0-31.78,23.44-55,54-55,30.4,0,53.84,23.24,53.84,55,0,31.59-23.44,54.63-53.84,54.63C291.18,143,267.74,120,267.74,88.39Zm54,37.35c20.27,0,35.36-15.69,35.36-37.35,0-22-15.09-37.74-35.36-37.74-20.46,0-35.75,15.7-35.75,37.74C286,110.05,301.31,125.74,321.77,125.74Z"/><path class="cls-1" d="M372,35.75h20.06l29.6,80.45,29.6-80.45h19.07L430.22,140.64H412.54Z"/><path class="cls-1" d="M468,88.59c0-31.38,22.25-54.82,52.64-54.82,26.62,0,50.45,18.07,49.86,56.81H485c1,20.66,15.3,36,36.95,36,15.29,0,27.81-7.55,35.55-20.26l12.72,9.34c-9.14,14.3-25,27-48.47,27C489.61,142.62,468,119.38,468,88.59Zm84.62-11.72C549.2,58.2,536.09,49.26,520.4,49.26,502.72,49.26,489.81,61,486,76.87Z"/><path class="cls-1" d="M630.09,88.2c0-32,23.24-54.43,52-54.43,15.7,0,29.8,6.75,37.15,17.88l.2-15.9H736V140.64H719.48l-.2-15.89c-7.35,11.12-21.45,17.87-37.15,17.87C653.33,142.62,630.09,120.18,630.09,88.2Zm54,37.34c19.27,0,35-13.31,35-37.34s-15.69-37.55-35-37.55c-20.46,0-35.75,15.5-35.75,37.55C648.37,110.05,663.66,125.54,684.12,125.54Z"/><path class="cls-1" d="M606,123.89V52.44h13.51l7-16.69H606V0L587.74,6.75v29H575V52.44h12.72V123.1a17.53,17.53,0,0,0,17.53,17.54h14.29v-.06l7-16.69Z"/></g></g></svg>